<svg id="Layer_5" data-name="Layer 5" xmlns="http://www.w3.org/2000/svg" viewBox="0 0 273.9 297.52"><defs><style>.cls-1,.cls-2{fill:#fff;}.cls-1{fill-rule:evenodd;}</style></defs><path class="cls-1" d="M238.48,284.07l2.58-35.51c3.26-53.4-2.9-107.86-9.5-123.52-5.21-12.38-11.16-22.25-23.72-16.63s-9.48,32.84-9.48,32.84q12.48.74,18.77,15.65c10.74,25.5,17,104.14,7.42,192.38-16.88-26.69-17.54-28.35-40.92-61.12q-31.38-43.67-46-54.79t-28.81-2.16q-17.2,10.9-19,40.18c-1,16.17,10.37,41.08,13.84,39.94-4-24.25-5-41.95,6.1-48.95q9.61-6.11,22.41,6.2t46.74,59.76c26.49,37.24,28.35,44.47,45.9,76l5.29-34.57,4.35-36.52s2.09-19.4,2.19-20.94l.8-12.29Z" transform="translate(-89.76 -106.79)"/><polygon class="cls-2" points="247.89 293.3 146.53 195.02 146.57 182.31 247.89 82.88 273.9 82.88 165.45 188.71 273.9 293.3 247.89 293.3"/></svg>